HIERARCHY
ROOT Hips
{
	OFFSET 0.000000 83.214638 0.000000
	CHANNELS 6 Xposition Yposition Zposition Xrotation Yrotation Zrotation
	JOINT Pelvis
	{
		OFFSET 0.000000 0.000000 0.000000
		CHANNELS 3 Xrotation Yrotation Zrotation
		JOINT LeftUpLeg
		{
			OFFSET 8.479700 -4.795502 -0.379100
			CHANNELS 3 Xrotation Yrotation Zrotation
			JOINT LeftLeg
			{
				OFFSET 0.024144 -32.555107 0.112900
				CHANNELS 3 Xrotation Yrotation Zrotation
				JOINT LeftFoot
				{
					OFFSET -0.024144 -32.638630 -3.012600
					CHANNELS 3 Xrotation Yrotation Zrotation
					JOINT LeftToeBase
					{
						OFFSET 0.970200 -13.225400 11.864200
						CHANNELS 3 Xrotation Yrotation Zrotation
						End Site
						{
							OFFSET 0.000000 12.319262 0.000000
						}
					}
					JOINT LFootTongue
					{
						OFFSET 1.142400 -1.059800 6.665200
						CHANNELS 3 Xrotation Yrotation Zrotation
						End Site
						{
							OFFSET 0.000000 12.319262 0.000000
						}
					}
				}
				JOINT LeftPantLeg
				{
					OFFSET 0.918482 -16.533964 -2.284700
					CHANNELS 3 Xrotation Yrotation Zrotation
					End Site
					{
						OFFSET 0.350399 24.744368 0.000000
					}
				}
			}
		}
		JOINT RightUpLeg
		{
			OFFSET -8.479700 -4.795502 -0.379100
			CHANNELS 3 Xrotation Yrotation Zrotation
			JOINT RightLeg
			{
				OFFSET -0.023144 -32.555092 0.112900
				CHANNELS 3 Xrotation Yrotation Zrotation
				JOINT RightFoot
				{
					OFFSET 0.023144 -32.638641 -3.012700
					CHANNELS 3 Xrotation Yrotation Zrotation
					JOINT RightToeBase
					{
						OFFSET -0.970200 -13.225400 11.864200
						CHANNELS 3 Xrotation Yrotation Zrotation
						End Site
						{
							OFFSET 0.000000 12.319244 0.000000
						}
					}
					JOINT RFootTongue
					{
						OFFSET -1.142200 -1.059800 6.665200
						CHANNELS 3 Xrotation Yrotation Zrotation
						End Site
						{
							OFFSET 0.000000 12.319243 0.000000
						}
					}
				}
				JOINT RightPantLeg
				{
					OFFSET -0.919482 -16.533978 -2.284800
					CHANNELS 3 Xrotation Yrotation Zrotation
					End Site
					{
						OFFSET -0.350400 24.744419 0.000000
					}
				}
			}
		}
	}
	JOINT Spine
	{
		OFFSET 0.000000 7.722000 1.166200
		CHANNELS 3 Xrotation Yrotation Zrotation
		JOINT Spine1
		{
			OFFSET 0.000000 12.024101 0.248800
			CHANNELS 3 Xrotation Yrotation Zrotation
			JOINT Spine2
			{
				OFFSET 0.000000 11.502998 -0.491200
				CHANNELS 3 Xrotation Yrotation Zrotation
				JOINT Neck
				{
					OFFSET 0.000000 18.430702 -3.123100
					CHANNELS 3 Xrotation Yrotation Zrotation
					JOINT Head
					{
						OFFSET 0.000000 9.051102 1.034000
						CHANNELS 3 Xrotation Yrotation Zrotation
						JOINT HairB
						{
							OFFSET 0.208400 24.786102 24.822300
							CHANNELS 3 Xrotation Yrotation Zrotation
							End Site
							{
								OFFSET 0.000000 32.263779 0.000000
							}
						}
						JOINT HairA
						{
							OFFSET -7.081100 24.428299 23.196600
							CHANNELS 3 Xrotation Yrotation Zrotation
							End Site
							{
								OFFSET 0.000000 32.263779 0.000000
							}
						}
						JOINT Hat
						{
							OFFSET 16.728800 15.048294 -15.439601
							CHANNELS 3 Xrotation Yrotation Zrotation
							End Site
							{
								OFFSET 0.000000 32.263779 0.000000
							}
						}
					}
				}
				JOINT LeftShoulder
				{
					OFFSET 6.197800 13.665199 -4.064700
					CHANNELS 3 Xrotation Yrotation Zrotation
					JOINT LeftArm
					{
						OFFSET 7.778100 -0.187103 -1.709300
						CHANNELS 3 Xrotation Yrotation Zrotation
						JOINT LeftForeArm
						{
							OFFSET 22.049376 0.000000 0.000000
							CHANNELS 3 Xrotation Yrotation Zrotation
							JOINT LeftHand
							{
								OFFSET 23.009392 0.000000 0.000000
								CHANNELS 3 Xrotation Yrotation Zrotation
								JOINT LeftHandThumb1
								{
									OFFSET 3.507191 -2.063065 3.133727
									CHANNELS 3 Xrotation Yrotation Zrotation
									JOINT LeftHandThumb2
									{
										OFFSET 3.101337 -1.790558 1.790558
										CHANNELS 3 Xrotation Yrotation Zrotation
										JOINT LeftHandThumb3
										{
											OFFSET 3.058640 -1.765907 1.765906
											CHANNELS 3 Xrotation Yrotation Zrotation
											End Site
											{
												OFFSET -0.415260 3.926476 -0.049563
											}
										}
									}
								}
								JOINT LeftHandIndex1
								{
									OFFSET 11.334419 -0.901459 3.706815
									CHANNELS 3 Xrotation Yrotation Zrotation
									JOINT LeftHandIndex2
									{
										OFFSET 3.283112 0.000000 0.000000
										CHANNELS 3 Xrotation Yrotation Zrotation
										JOINT LeftHandIndex3
										{
											OFFSET 3.323853 0.000000 0.000000
											CHANNELS 3 Xrotation Yrotation Zrotation
											End Site
											{
												OFFSET -1.135597 3.097809 0.402452
											}
										}
									}
								}
								JOINT LeftHandMiddle1
								{
									OFFSET 11.335861 0.000000 0.000000
									CHANNELS 3 Xrotation Yrotation Zrotation
									JOINT LeftHandMiddle2
									{
										OFFSET 3.410492 0.000000 0.000000
										CHANNELS 3 Xrotation Yrotation Zrotation
										JOINT LeftHandMiddle3
										{
											OFFSET 3.312172 0.000000 0.000000
											CHANNELS 3 Xrotation Yrotation Zrotation
											End Site
											{
												OFFSET -1.150200 3.080154 0.400270
											}
										}
									}
								}
								JOINT LeftHandRing1
								{
									OFFSET 11.514786 -0.013176 -3.003090
									CHANNELS 3 Xrotation Yrotation Zrotation
									JOINT LeftHandRing2
									{
										OFFSET 3.053307 0.000000 0.000000
										CHANNELS 3 Xrotation Yrotation Zrotation
										JOINT LeftHandRing3
										{
											OFFSET 3.295807 0.000000 0.000000
											CHANNELS 3 Xrotation Yrotation Zrotation
											End Site
											{
												OFFSET -1.281006 3.013344 0.375733
											}
										}
									}
								}
								JOINT LeftHandPinky1
								{
									OFFSET 10.518692 -0.960396 -5.730441
									CHANNELS 3 Xrotation Yrotation Zrotation
									JOINT LeftHandPinky2
									{
										OFFSET 2.861649 0.000000 0.000000
										CHANNELS 3 Xrotation Yrotation Zrotation
										JOINT LeftHandPinky3
										{
											OFFSET 2.863380 0.000000 0.000000
											CHANNELS 3 Xrotation Yrotation Zrotation
											End Site
											{
												OFFSET -0.843597 2.711159 0.369971
											}
										}
									}
								}
							}
							JOINT LSleeve
							{
								OFFSET 6.676277 -0.344902 -1.011730
								CHANNELS 3 Xrotation Yrotation Zrotation
								End Site
								{
									OFFSET 0.000000 14.885353 0.000000
								}
							}
						}
					}
				}
				JOINT RightShoulder
				{
					OFFSET -6.197800 13.665199 -4.064700
					CHANNELS 3 Xrotation Yrotation Zrotation
					JOINT RightArm
					{
						OFFSET -7.778100 -0.187103 -1.709300
						CHANNELS 3 Xrotation Yrotation Zrotation
						JOINT RightForeArm
						{
							OFFSET -22.049376 0.000000 0.000000
							CHANNELS 3 Xrotation Yrotation Zrotation
							JOINT RightHand
							{
								OFFSET -23.009392 0.000000 0.000000
								CHANNELS 3 Xrotation Yrotation Zrotation
								JOINT RightHandThumb1
								{
									OFFSET -3.507191 -2.063065 3.133727
									CHANNELS 3 Xrotation Yrotation Zrotation
									JOINT RightHandThumb2
									{
										OFFSET -3.101337 -1.790558 1.790558
										CHANNELS 3 Xrotation Yrotation Zrotation
										JOINT RightHandThumb3
										{
											OFFSET -3.058640 -1.765907 1.765906
											CHANNELS 3 Xrotation Yrotation Zrotation
											End Site
											{
												OFFSET 0.415260 3.926476 -0.049563
											}
										}
									}
								}
								JOINT RightHandIndex1
								{
									OFFSET -11.334419 -0.901459 3.706815
									CHANNELS 3 Xrotation Yrotation Zrotation
									JOINT RightHandIndex2
									{
										OFFSET -3.283112 0.000000 0.000000
										CHANNELS 3 Xrotation Yrotation Zrotation
										JOINT RightHandIndex3
										{
											OFFSET -3.323853 0.000000 0.000000
											CHANNELS 3 Xrotation Yrotation Zrotation
											End Site
											{
												OFFSET 1.135597 3.097809 0.402452
											}
										}
									}
								}
								JOINT RightHandMiddle1
								{
									OFFSET -11.335861 0.000000 0.000000
									CHANNELS 3 Xrotation Yrotation Zrotation
									JOINT RightHandMiddle2
									{
										OFFSET -3.410492 0.000000 0.000000
										CHANNELS 3 Xrotation Yrotation Zrotation
										JOINT RightHandMiddle3
										{
											OFFSET -3.312172 0.000000 0.000000
											CHANNELS 3 Xrotation Yrotation Zrotation
											End Site
											{
												OFFSET 1.150200 3.080154 0.400270
											}
										}
									}
								}
								JOINT RightHandRing1
								{
									OFFSET -11.514786 -0.013176 -3.003090
									CHANNELS 3 Xrotation Yrotation Zrotation
									JOINT RightHandRing2
									{
										OFFSET -3.053307 0.000000 0.000000
										CHANNELS 3 Xrotation Yrotation Zrotation
										JOINT RightHandRing3
										{
											OFFSET -3.295807 0.000000 0.000000
											CHANNELS 3 Xrotation Yrotation Zrotation
											End Site
											{
												OFFSET 1.281006 3.013344 0.375733
											}
										}
									}
								}
								JOINT RightHandPinky1
								{
									OFFSET -10.518692 -0.960396 -5.730441
									CHANNELS 3 Xrotation Yrotation Zrotation
									JOINT RightHandPinky2
									{
										OFFSET -2.861649 0.000000 0.000000
										CHANNELS 3 Xrotation Yrotation Zrotation
										JOINT RightHandPinky3
										{
											OFFSET -2.863380 0.000000 0.000000
											CHANNELS 3 Xrotation Yrotation Zrotation
											End Site
											{
												OFFSET 0.843597 2.711159 0.369971
											}
										}
									}
								}
							}
							JOINT RSleeve
							{
								OFFSET -6.676277 -0.344902 -1.011730
								CHANNELS 3 Xrotation Yrotation Zrotation
								End Site
								{
									OFFSET 0.000000 14.885353 0.000000
								}
							}
						}
					}
				}
				JOINT Backpack
				{
					OFFSET 0.000000 -2.471497 36.677502
					CHANNELS 3 Xrotation Yrotation Zrotation
					End Site
					{
						OFFSET 0.000000 20.427315 0.000000
					}
				}
				JOINT Hood
				{
					OFFSET 0.000000 18.754097 -10.431000
					CHANNELS 3 Xrotation Yrotation Zrotation
					JOINT Hood1
					{
						OFFSET 0.000000 -5.011002 -7.685901
						CHANNELS 3 Xrotation Yrotation Zrotation
						End Site
						{
							OFFSET 0.000000 9.175140 0.000000
						}
					}
				}
				JOINT LHoodieString
				{
					OFFSET 5.250500 16.397697 3.089900
					CHANNELS 3 Xrotation Yrotation Zrotation
					JOINT LHoodieString1
					{
						OFFSET 0.257700 -6.364304 3.694600
						CHANNELS 3 Xrotation Yrotation Zrotation
						JOINT LHoodieString2
						{
							OFFSET 0.000000 -9.643799 2.679100
							CHANNELS 3 Xrotation Yrotation Zrotation
							End Site
							{
								OFFSET 0.000000 10.009018 0.000000
							}
						}
					}
				}
				JOINT RHoodieString
				{
					OFFSET -5.250500 16.397697 3.089900
					CHANNELS 3 Xrotation Yrotation Zrotation
					JOINT RHoodieString1
					{
						OFFSET -0.257700 -6.364304 3.694600
						CHANNELS 3 Xrotation Yrotation Zrotation
						JOINT RHoodieString2
						{
							OFFSET 0.000000 -9.643799 2.679100
							CHANNELS 3 Xrotation Yrotation Zrotation
							End Site
							{
								OFFSET 0.000000 10.009018 0.000000
							}
						}
					}
				}
			}
			JOINT LBackpack_Strap
			{
				OFFSET 15.223200 -7.719803 -6.610900
				CHANNELS 3 Xrotation Yrotation Zrotation
				End Site
				{
					OFFSET 0.000000 16.040596 0.000000
				}
			}
			JOINT RBackpack_Strap
			{
				OFFSET -15.223000 -7.719803 -6.610900
				CHANNELS 3 Xrotation Yrotation Zrotation
				End Site
				{
					OFFSET 0.000000 16.040596 0.000000
				}
			}
		}
	}
	JOINT BoyFacialAnim_Joint
	{
		OFFSET 1.000000 -82.208099 -1.550900
		CHANNELS 3 Xrotation Yrotation Zrotation
		End Site
		{
			OFFSET 0.000000 30.012791 0.000000
		}
	}
}
MOTION
Frames: 4
Frame Time: 0.016667
1.718204 71.899284 22.544359 5.541070 -411.742900 7.882692 0.000000 0.000002 -0.000000 -5.508541 15.153239 -7.034335 49.232096 -9.304412 -8.077792 -32.695976 -9.345729 17.293083 -0.000001 0.000002 -0.000001 -0.000001 0.000002 -0.000001 0.000003 0.000000 0.000002 -51.715160 -0.752920 -1.843792 18.934169 10.239814 3.404141 -7.994463 2.116214 19.358202 -0.000000 0.000002 0.000001 -0.000000 0.000002 0.000001 0.000002 -0.000001 0.000001 11.658724 -6.107178 4.629049 7.182702 -7.370588 1.871815 -3.934140 -6.959429 2.025282 7.764873 41.421518 -11.305572 0.258111 26.018796 -6.977971 0.000001 0.000000 0.000001 0.000001 0.000000 0.000001 0.000001 0.000000 0.000001 1.383209 -5.637202 -0.733877 -2.266012 -2.878843 -36.679475 -0.000823 -20.848217 -3.050622 -46.535537 -14.688335 25.139500 20.995604 -10.306019 6.187771 3.717730 17.385540 -9.270259 0.000002 0.000000 -0.000000 12.155546 -5.008990 -19.357548 -1.752628 1.408433 -24.867486 -0.000001 -0.000001 -0.000002 2.495170 2.549574 -39.192005 -1.398697 0.248736 -47.542925 -0.000001 -0.000003 -0.000000 0.949996 6.178076 -48.371693 -2.316273 1.003911 -53.554595 -0.000003 0.000004 0.000000 -1.286394 4.834428 -53.465280 -2.521698 1.318789 -48.312202 -0.000001 0.000001 0.000002 -0.000001 0.000001 0.000004 9.987216 -5.269199 3.687166 4.872923 -1.636425 76.375517 -10.545827 13.289832 4.346981 -27.527559 -8.499058 -15.910796 55.149516 18.649558 -29.698277 -0.442538 -14.180554 7.313153 -0.000003 -0.000000 -0.000002 5.673383 7.585003 36.844165 1.050468 3.824510 68.900250 0.000001 -0.000000 0.000000 -0.125714 1.886076 45.000780 -1.168996 3.204681 68.417650 0.000004 -0.000005 0.000001 -5.312005 1.216617 58.508787 -0.745220 1.667568 48.011305 -0.000001 0.000002 0.000002 -7.756838 -9.376452 47.264021 -0.526023 1.541557 45.600525 -0.000001 0.000001 0.000004 -0.000001 0.000000 -0.000000 -0.000001 0.000002 -0.000001 -0.000001 0.000002 -0.000001 -0.000001 0.000002 -0.000001 -0.000001 0.000002 -0.000001 -0.000001 0.000002 -0.000000 -0.000001 0.000000 -0.000000 -0.000001 0.000002 -0.000001 -0.000001 0.000002 -0.000000 -0.000001 0.000000 -0.000000 -0.000001 -0.000001 -0.000000 -0.000001 -0.000001 -0.000000 0.000000 0.000002 -0.000000 
2.673633 72.214226 21.641552 5.642948 -412.973782 7.462006 0.000000 0.000003 -0.000000 -4.339672 14.968453 -7.197536 45.743177 -8.667508 -8.034884 -35.568080 -8.948768 16.127101 -0.000000 -0.000002 -0.000001 -0.000000 -0.000002 -0.000000 0.000002 -0.000002 0.000001 -51.290681 -1.758374 -2.515107 18.398359 11.045985 4.488066 -5.129883 3.000678 20.297068 0.000002 -0.000000 0.000003 0.000002 -0.000000 0.000003 0.000003 0.000001 0.000002 11.522847 -5.906980 4.653575 6.897508 -6.951606 1.878611 -4.209828 -6.549561 2.113399 6.754097 41.480439 -10.680603 1.712229 25.842639 -7.475037 0.000002 -0.000000 0.000000 0.000002 -0.000000 0.000000 0.000002 -0.000000 0.000000 1.270533 -5.316228 -0.766508 -4.829679 -2.597533 -36.315098 -0.000759 -23.380842 -2.655198 -43.580015 -16.603160 22.958410 20.993676 -10.305566 6.186531 3.715756 17.385347 -9.269074 -0.000000 -0.000001 -0.000001 12.155545 -5.009005 -19.357507 -1.752639 1.408479 -24.867527 -0.000002 0.000001 -0.000002 2.495520 2.548928 -39.191929 -1.398870 0.248800 -47.542952 -0.000001 -0.000000 0.000000 0.950622 6.178131 -48.371734 -2.316292 1.003866 -53.554595 -0.000001 0.000003 -0.000000 -1.286441 4.834442 -53.465252 -2.521163 1.318797 -48.312291 0.000001 0.000002 0.000000 -0.000001 0.000001 0.000001 10.009433 -5.246996 3.894586 5.281033 -0.456758 74.450353 -9.017216 16.459818 6.074808 -27.199907 -7.979315 -16.432199 55.149512 18.649560 -29.698277 -0.442539 -14.180555 7.313155 0.000000 0.000001 0.000001 5.673385 7.585004 36.844161 1.050469 3.824507 68.900257 -0.000001 -0.000000 0.000004 -0.125710 1.886075 45.000773 -1.168994 3.204684 68.417643 -0.000002 0.000001 0.000004 -5.312005 1.216615 58.508787 -0.745223 1.667572 48.011302 -0.000001 -0.000001 0.000000 -7.756838 -9.376453 47.264025 -0.526024 1.541556 45.600525 -0.000003 -0.000001 0.000000 0.000001 0.000001 0.000000 0.000002 0.000001 -0.000000 0.000002 0.000001 -0.000000 0.000002 0.000001 -0.000000 0.000002 0.000001 -0.000000 0.000002 0.000001 -0.000001 0.000000 -0.000000 0.000000 0.000002 0.000001 -0.000000 0.000002 0.000001 -0.000001 0.000000 -0.000000 0.000000 0.000001 -0.000000 0.000000 0.000001 -0.000000 0.000000 0.000000 0.000003 -0.000000 
3.556675 72.569618 20.809248 5.899108 -413.898453 7.738451 0.000000 -0.000003 0.000000 -3.769811 14.697437 -7.777275 42.994490 -7.821768 -7.985773 -37.081329 -8.133913 14.639066 -0.000000 0.000001 0.000000 -0.000000 0.000001 0.000000 0.000001 0.000001 0.000002 -51.524078 -1.436273 -2.801943 19.558093 11.164048 4.147156 -2.097259 3.743147 20.030669 -0.000003 0.000000 -0.000001 -0.000003 0.000000 -0.000001 0.000001 -0.000002 0.000001 11.430009 -5.752045 4.606016 6.702433 -6.646075 1.735210 -4.396956 -6.222360 2.032142 5.775673 41.621148 -10.698915 2.687456 25.531746 -7.780070 -0.000001 -0.000000 -0.000000 -0.000001 -0.000000 -0.000000 -0.000001 -0.000000 -0.000000 1.193828 -5.438121 -0.666399 -7.183529 -1.982277 -36.296161 -0.000734 -25.615158 -2.431708 -40.197200 -19.135397 21.319329 20.991796 -10.305257 6.185328 3.713734 17.384933 -9.267933 -0.000001 -0.000000 0.000002 12.155564 -5.008991 -19.357565 -1.752640 1.408497 -24.867484 -0.000001 -0.000002 -0.000002 2.495751 2.548443 -39.191875 -1.399387 0.248732 -47.542928 0.000001 0.000000 0.000002 0.951322 6.178120 -48.371833 -2.316285 1.003904 -53.554636 -0.000002 0.000002 -0.000002 -1.286385 4.834454 -53.465280 -2.520834 1.318755 -48.312230 0.000003 -0.000001 -0.000000 -0.000001 0.000000 0.000000 10.002473 -5.247357 3.791884 5.106705 1.244155 72.693963 -7.342019 18.797415 7.476833 -27.297730 -7.313753 -16.910819 55.149519 18.649558 -29.698277 -0.442538 -14.180554 7.313150 0.000002 0.000001 0.000002 5.673382 7.585004 36.844161 1.050468 3.824508 68.900250 -0.000000 0.000000 0.000000 -0.125712 1.886077 45.000773 -1.168992 3.204681 68.417650 -0.000002 0.000001 0.000002 -5.312010 1.216617 58.508780 -0.745221 1.667569 48.011309 0.000004 0.000000 0.000000 -7.756842 -9.376450 47.264018 -0.526022 1.541556 45.600529 0.000001 0.000006 -0.000004 0.000001 -0.000001 -0.000001 -0.000000 -0.000000 -0.000001 -0.000000 -0.000000 -0.000001 -0.000000 -0.000000 -0.000001 -0.000000 -0.000000 -0.000001 -0.000000 -0.000000 -0.000001 -0.000002 -0.000000 -0.000001 -0.000000 -0.000000 -0.000001 -0.000000 -0.000000 -0.000001 -0.000002 -0.000000 -0.000001 0.000001 0.000001 -0.000000 0.000001 0.000001 -0.000000 0.000000 -0.000003 0.000000 
4.335822 72.878296 20.017679 6.173109 -414.481342 8.208858 -0.000000 -0.000002 0.000000 -3.636748 13.903887 -8.482849 40.869328 -7.190461 -7.593865 -38.296929 -7.088168 12.515540 0.000000 -0.000003 -0.000000 0.000000 -0.000003 -0.000000 -0.000000 0.000000 0.000002 -52.000003 -0.362812 -2.927390 21.483643 11.105475 2.826773 1.226633 4.282444 20.925145 0.000001 0.000000 -0.000001 0.000001 0.000000 -0.000001 -0.000001 0.000001 0.000000 11.395099 -5.630443 4.529107 6.628095 -6.390915 1.563481 -4.464393 -5.939067 1.913260 4.365871 41.687452 -10.666467 3.702044 25.152708 -8.050836 0.000000 -0.000001 0.000000 0.000000 -0.000001 0.000000 0.000000 -0.000001 0.000000 1.126229 -5.641828 -0.722997 -9.346834 -1.665557 -36.045316 -0.000768 -28.424324 -2.537049 -36.837293 -19.810996 22.805348 20.990336 -10.305111 6.184455 3.711913 17.384484 -9.266743 -0.000000 0.000001 -0.000000 12.155592 -5.008959 -19.357514 -1.752642 1.408426 -24.867517 0.000001 0.000001 -0.000002 2.495622 2.548046 -39.191865 -1.400268 0.248778 -47.542898 0.000001 -0.000001 -0.000000 0.951985 6.178102 -48.371950 -2.316346 1.003913 -53.554622 -0.000002 0.000000 -0.000000 -1.286402 4.834416 -53.465286 -2.520809 1.318772 -48.312281 0.000000 -0.000000 -0.000000 -0.000000 -0.000000 -0.000001 10.045356 -5.469083 3.772898 4.495826 3.336449 70.727633 -5.588861 20.793994 8.779316 -27.367707 -6.389263 -16.786242 55.149512 18.649558 -29.698277 -0.442544 -14.180560 7.313154 -0.000002 0.000002 0.000000 5.673382 7.585006 36.844161 1.050468 3.824508 68.900257 -0.000002 0.000000 0.000002 -0.125713 1.886081 45.000773 -1.168992 3.204683 68.417643 -0.000000 0.000001 0.000000 -5.312006 1.216620 58.508787 -0.745221 1.667568 48.011302 -0.000000 -0.000001 0.000002 -7.756840 -9.376450 47.264021 -0.526022 1.541559 45.600529 -0.000002 0.000004 -0.000003 0.000002 -0.000000 -0.000000 0.000001 0.000001 0.000000 0.000001 0.000001 0.000000 0.000001 0.000001 0.000000 0.000001 0.000001 0.000000 0.000001 0.000001 0.000000 -0.000001 0.000001 0.000000 0.000001 0.000001 0.000000 0.000001 0.000001 0.000000 -0.000001 0.000001 0.000000 0.000001 0.000000 -0.000000 0.000001 0.000000 -0.000000 -0.000000 -0.000002 0.000000 
